<svg width="17" height="17" viewBox="0 0 17 17" fill="none" xmlns="http://www.w3.org/2000/svg">
<path d="M14.45 1.7H12.75V0.85C12.75 0.624566 12.6604 0.408365 12.501 0.248959C12.3416 0.0895533 12.1254 0 11.9 0C11.6746 0 11.4584 0.0895533 11.299 0.248959C11.1396 0.408365 11.05 0.624566 11.05 0.85V1.7H5.95V0.85C5.95 0.624566 5.86045 0.408365 5.70104 0.248959C5.54164 0.0895533 5.32543 0 5.1 0C4.87457 0 4.65837 0.0895533 4.49896 0.248959C4.33955 0.408365 4.25 0.624566 4.25 0.85V1.7H2.55C1.8737 1.7 1.2251 1.96866 0.746878 2.44688C0.26866 2.9251 0 3.5737 0 4.25V14.45C0 15.1263 0.26866 15.7749 0.746878 16.2531C1.2251 16.7313 1.8737 17 2.55 17H14.45C15.1263 17 15.7749 16.7313 16.2531 16.2531C16.7313 15.7749 17 15.1263 17 14.45V4.25C17 3.5737 16.7313 2.9251 16.2531 2.44688C15.7749 1.96866 15.1263 1.7 14.45 1.7ZM15.3 14.45C15.3 14.6754 15.2104 14.8916 15.051 15.051C14.8916 15.2104 14.6754 15.3 14.45 15.3H2.55C2.32457 15.3 2.10837 15.2104 1.94896 15.051C1.78955 14.8916 1.7 14.6754 1.7 14.45V8.5H15.3V14.45ZM15.3 6.8H1.7V4.25C1.7 4.02457 1.78955 3.80837 1.94896 3.64896C2.10837 3.48955 2.32457 3.4 2.55 3.4H4.25V4.25C4.25 4.47543 4.33955 4.69163 4.49896 4.85104C4.65837 5.01045 4.87457 5.1 5.1 5.1C5.32543 5.1 5.54164 5.01045 5.70104 4.85104C5.86045 4.69163 5.95 4.47543 5.95 4.25V3.4H11.05V4.25C11.05 4.47543 11.1396 4.69163 11.299 4.85104C11.4584 5.01045 11.6746 5.1 11.9 5.1C12.1254 5.1 12.3416 5.01045 12.501 4.85104C12.6604 4.69163 12.75 4.47543 12.75 4.25V3.4H14.45C14.6754 3.4 14.8916 3.48955 15.051 3.64896C15.2104 3.80837 15.3 4.02457 15.3 4.25V6.8Z" fill="black"/>
</svg>
