<svg width="15" height="15" viewBox="0 0 15 15" fill="none" xmlns="http://www.w3.org/2000/svg">
<path d="M10.4635 9.62309L10.0839 10.0227C10.0839 10.0227 9.18174 10.9725 6.71924 8.37992C4.25676 5.78737 5.15891 4.83756 5.15891 4.83756L5.39793 4.58593C5.98674 3.96604 6.04224 2.97081 5.52853 2.24425L4.47771 0.758009C3.84189 -0.14125 2.6133 -0.260042 1.88454 0.5072L0.576539 1.88428C0.21519 2.26472 -0.0269598 2.75788 0.00240683 3.30495C0.0775318 4.70455 0.675589 7.71584 4.01279 11.2293C7.55174 14.9552 10.8723 15.1033 12.2302 14.9693C12.6597 14.9268 13.0332 14.6953 13.3342 14.3783L14.5181 13.132C15.3171 12.2908 15.0918 10.8485 14.0694 10.26L12.4773 9.34359C11.806 8.95717 10.9882 9.07067 10.4635 9.62309Z" fill="#70940D"/>
</svg>
