<svg width="24" height="18" viewBox="0 0 24 18" fill="none" xmlns="http://www.w3.org/2000/svg">
<path fill-rule="evenodd" clip-rule="evenodd" d="M12 0C18.6169 0 24 5.35215 24 11.928C24 12.8864 23.8885 13.8308 23.6682 14.7345L23.5369 15.2706H16.5346C16.1958 16.201 15.5365 17.0205 14.5906 17.5201C13.992 17.833 13.32 18 12.6452 18C11.1021 18 9.69459 17.1594 8.97318 15.8053C8.89976 15.6663 8.82494 15.4853 8.75011 15.2706H0.463062L0.331763 14.7345C0.111525 13.8308 0 12.8864 0 11.928C0 5.35215 5.38306 0 12 0ZM14.1021 15.2706C14.6979 14.6574 14.8673 13.7158 14.4438 12.9215C13.9158 11.9336 9.3967 7.78265 9.3967 7.78265C9.3967 7.78265 10.3172 13.8308 10.8438 14.8187C10.9355 14.9914 11.0555 15.1359 11.184 15.2706H11.1727C11.1981 15.2973 11.2292 15.3155 11.2546 15.3394C11.3125 15.3941 11.3718 15.4446 11.4339 15.4909C11.4805 15.526 11.5299 15.5569 11.5779 15.5863C11.6428 15.6256 11.7078 15.6621 11.7769 15.6958C11.8306 15.7197 11.8842 15.7421 11.9407 15.7632C12.0085 15.787 12.0777 15.8095 12.1496 15.8263C12.2083 15.8416 12.2677 15.8543 12.3275 15.8642C12.3995 15.8754 12.4701 15.8824 12.5421 15.8852C12.5774 15.8866 12.6113 15.8951 12.6452 15.8951C12.6692 15.8951 12.6932 15.8866 12.7172 15.8866C12.8202 15.8838 12.9219 15.8698 13.0235 15.8502C13.0701 15.8403 13.1181 15.8361 13.1647 15.8235C13.3115 15.7842 13.4555 15.7337 13.5939 15.6593H13.5981V15.6579C13.7944 15.5555 13.9567 15.4194 14.1021 15.2706ZM19 9L21.5 7L19 4L16.5346 6.0945L19 9ZM10 5H14.1021L14 2H10V5ZM5 9L7.5 6.0945L5 4L2.5 7L5 9Z" fill="black"/>
</svg>
