<svg width="30" height="28" viewBox="0 0 30 28" fill="none" xmlns="http://www.w3.org/2000/svg">
<path d="M25.9091 4.9H4.09091C3.00593 4.9 1.96539 5.3425 1.1982 6.13015C0.431005 6.9178 0 7.98609 0 9.1V23.8C0 24.9139 0.431005 25.9822 1.1982 26.7698C1.96539 27.5575 3.00593 28 4.09091 28H25.9091C26.9941 28 28.0346 27.5575 28.8018 26.7698C29.569 25.9822 30 24.9139 30 23.8V9.1C30 7.98609 29.569 6.9178 28.8018 6.13015C28.0346 5.3425 26.9941 4.9 25.9091 4.9ZM27.2727 23.8C27.2727 24.1713 27.1291 24.5274 26.8733 24.7899C26.6176 25.0525 26.2708 25.2 25.9091 25.2H4.09091C3.72925 25.2 3.3824 25.0525 3.12667 24.7899C2.87094 24.5274 2.72727 24.1713 2.72727 23.8V9.1C2.72727 8.7287 2.87094 8.3726 3.12667 8.11005C3.3824 7.8475 3.72925 7.7 4.09091 7.7H25.9091C26.2708 7.7 26.6176 7.8475 26.8733 8.11005C27.1291 8.3726 27.2727 8.7287 27.2727 9.1V23.8ZM8.18182 1.4C8.18182 1.0287 8.32549 0.672601 8.58122 0.41005C8.83695 0.1475 9.1838 0 9.54545 0H20.4545C20.8162 0 21.1631 0.1475 21.4188 0.41005C21.6745 0.672601 21.8182 1.0287 21.8182 1.4C21.8182 1.7713 21.6745 2.1274 21.4188 2.38995C21.1631 2.6525 20.8162 2.8 20.4545 2.8H9.54545C9.1838 2.8 8.83695 2.6525 8.58122 2.38995C8.32549 2.1274 8.18182 1.7713 8.18182 1.4ZM16.3636 15.05H19.0909V17.85H16.3636V20.65H13.6364V17.85H10.9091V15.05H13.6364V12.25H16.3636V15.05Z" fill="#809BCE"/>
</svg>
