<svg width="30" height="30" viewBox="0 0 30 30" fill="none" xmlns="http://www.w3.org/2000/svg">
<path d="M26.5999 8L14.6749 19.9249C13.4874 21.1124 9.96234 21.6624 9.17484 20.8749C8.38734 20.0874 8.92484 16.5624 10.1123 15.3749L22.0499 3.43746C22.3443 3.11629 22.7006 2.85811 23.0976 2.67849C23.4945 2.49886 23.9238 2.40149 24.3594 2.39231C24.7949 2.38315 25.2279 2.46233 25.632 2.62509C26.0361 2.78785 26.4031 3.03085 26.7108 3.33935C27.0184 3.64785 27.2604 4.01548 27.422 4.42005C27.5836 4.82464 27.6618 5.25776 27.6514 5.69333C27.641 6.12889 27.5424 6.55788 27.3618 6.95431C27.181 7.35075 26.9219 7.70649 26.5999 8Z" stroke="white" stroke-width="1.75" stroke-linecap="round" stroke-linejoin="round"/>
<path d="M13.75 5H7.5C6.17391 5 4.90222 5.52677 3.96454 6.46446C3.02686 7.40215 2.5 8.67391 2.5 10V22.5C2.5 23.8261 3.02686 25.0979 3.96454 26.0355C4.90222 26.9732 6.17391 27.5 7.5 27.5H21.25C24.0125 27.5 25 25.25 25 22.5V16.25" stroke="white" stroke-width="1.75" stroke-linecap="round" stroke-linejoin="round"/>
</svg>
