<svg width="34" height="33" viewBox="0 0 34 33" fill="none" xmlns="http://www.w3.org/2000/svg">
<path d="M28.5645 5.62781L21.3366 2.98475C20.0356 2.56742 18.7346 2.70653 17.7226 3.40207C17.289 3.68029 16.9999 3.95851 16.7107 4.23672H11.2176C9.04919 4.23672 7.16992 6.04514 7.16992 8.13177V9.52284C7.16992 10.0793 7.60361 10.6357 8.32639 10.6357C9.04919 10.6357 9.48286 10.0793 9.48286 9.52284V8.13177C9.48286 7.15801 10.3502 6.46246 11.2176 6.46246H15.9879V26.6332H11.2176C10.2056 26.6332 9.48286 25.7986 9.48286 24.9638V23.5729C9.48286 23.0164 9.04919 22.4599 8.32639 22.4599C7.60361 22.4599 7.16992 22.8773 7.16992 23.4337V24.8248C7.16992 26.9114 8.90463 28.7198 11.2176 28.7198H16.7107C16.9999 28.9981 17.289 29.4154 17.5781 29.5545C18.3009 29.9718 19.0237 30.25 19.891 30.25C20.3246 30.25 20.9029 30.1109 21.3366 29.9718L28.5645 27.3287C30.1546 26.7724 31.1665 25.3813 31.1665 23.7119V9.10552C31.1665 7.57533 30.0101 6.04514 28.5645 5.62781Z" fill="#809BCE"/>
<path d="M9.04949 18.5648C8.61581 18.9821 8.61581 19.6778 9.04949 20.0951C9.19405 20.2342 9.48316 20.3732 9.77227 20.3732C10.0614 20.3732 10.3505 20.2342 10.4951 20.0951L13.3862 17.3129C13.5308 17.1737 13.5308 17.0347 13.6753 17.0347C13.6753 16.8956 13.8199 16.7564 13.8199 16.6174C13.8199 16.4783 13.8199 16.3391 13.6753 16.2001C13.6753 16.061 13.5308 15.9218 13.3862 15.9218L10.4951 13.1397C10.0614 12.7223 9.3386 12.7223 8.90492 13.1397C8.47125 13.557 8.47125 14.2526 8.90492 14.6699L9.91683 15.6436H3.98996C3.41172 15.6436 2.8335 16.061 2.8335 16.7564C2.8335 17.452 3.26717 17.8694 3.98996 17.8694H10.0614L9.04949 18.5648Z" fill="#809BCE"/>
</svg>
