<svg width="20" height="19" viewBox="0 0 20 19" fill="none" xmlns="http://www.w3.org/2000/svg">
<path d="M19.4628 8.26408C19.4623 8.26365 19.4618 8.26321 19.4614 8.26278L11.3021 0.512573C10.9544 0.182068 10.492 0 10.0001 0C9.50828 0 9.04589 0.181923 8.69796 0.512428L0.542984 8.25872C0.540237 8.26133 0.53749 8.26408 0.534743 8.26669C-0.179441 8.94901 -0.17822 10.0561 0.538253 10.7366C0.865587 11.0477 1.29791 11.2279 1.76015 11.2467C1.77892 11.2485 1.79784 11.2494 1.81692 11.2494H2.14212V16.953C2.14212 18.0817 3.10886 19 4.29733 19H7.48949C7.81301 19 8.07549 18.7508 8.07549 18.4434V13.9717C8.07549 13.4566 8.51651 13.0377 9.05871 13.0377H10.9415C11.4837 13.0377 11.9248 13.4566 11.9248 13.9717V18.4434C11.9248 18.7508 12.1871 19 12.5108 19H15.7029C16.8914 19 17.8581 18.0817 17.8581 16.953V11.2494H18.1597C18.6514 11.2494 19.1138 11.0674 19.4618 10.7369C20.1791 10.0552 20.1794 8.94626 19.4628 8.26408Z" fill="#858EA9"/>
</svg>
