<svg width="20" height="20" viewBox="0 0 20 20" fill="none" xmlns="http://www.w3.org/2000/svg">
<path d="M8.75 0H18.75C19.4403 0 20 0.559711 20 1.25001V18.75C20 19.4403 19.4403 20.0001 18.75 20.0001H8.74996C8.05966 20.0001 7.49995 19.4403 7.49995 18.75V1.25001C7.49999 0.559711 8.05966 0 8.75 0V0ZM11.25 11.25C11.9404 11.25 12.5 10.6903 12.5 9.99999C12.5 9.30961 11.9404 8.74998 11.25 8.74998C10.5596 8.74998 9.99997 9.30961 9.99997 9.99999C9.99997 10.6903 10.5596 11.25 11.25 11.25Z" fill="black"/>
<path d="M1.19209e-05 10L4.375 6.25V8.74999H6.25V11.25H4.375V13.75L1.19209e-05 10Z" fill="black"/>
</svg>
