<svg width="22" height="22" viewBox="0 0 22 22" fill="none" xmlns="http://www.w3.org/2000/svg">
<g opacity="0.5">
<path fill-rule="evenodd" clip-rule="evenodd" d="M7.33325 1.83334C5.81447 1.83334 4.58325 3.06456 4.58325 4.58334V17.4167C4.58325 18.9355 5.81447 20.1667 7.33325 20.1667H14.6666C16.1854 20.1667 17.4166 18.9355 17.4166 17.4167V4.58334C17.4166 3.06456 16.1854 1.83334 14.6666 1.83334H7.33325ZM6.41659 4.58334C6.41659 4.07709 6.827 3.66668 7.33325 3.66668H14.6666C15.1729 3.66668 15.5833 4.07709 15.5833 4.58334V17.4167C15.5833 17.923 15.1729 18.3333 14.6666 18.3333H7.33325C6.827 18.3333 6.41659 17.923 6.41659 17.4167V4.58334ZM9.16658 15.5833C8.66033 15.5833 8.24992 15.9937 8.24992 16.5C8.24992 17.0063 8.66033 17.4167 9.16658 17.4167H12.8333C13.3395 17.4167 13.7499 17.0063 13.7499 16.5C13.7499 15.9937 13.3395 15.5833 12.8333 15.5833H9.16658Z" fill="black"/>
</g>
</svg>
