<svg width="21" height="22" viewBox="0 0 21 22" fill="none" xmlns="http://www.w3.org/2000/svg">
<path d="M18.2066 3.15272C18.2066 2.37885 17.5811 1.75151 16.8095 1.75151H16.4603V2.80242C16.4603 3.18935 16.1475 3.50303 15.7617 3.50303H15.0632C15.449 3.50303 15.7617 3.18935 15.7617 2.80242V0.700605C15.7617 0.313657 15.449 0 15.0632 0C14.6775 0 14.3647 0.313657 14.3647 0.700605V1.75151H12.6184V2.80242C12.6184 3.18935 12.3057 3.50303 11.9199 3.50303H11.2214C11.6071 3.50303 11.9199 3.18935 11.9199 2.80242V0.700605C11.9199 0.313657 11.6071 0 11.2214 0C10.8356 0 10.5228 0.313657 10.5228 0.700605V1.75151H8.42728V2.80242C8.42728 3.18935 8.11454 3.50303 7.72876 3.50303H7.03024C7.41602 3.50303 7.72876 3.18935 7.72876 2.80242V0.700605C7.72876 0.313657 7.41602 0 7.03024 0C6.64447 0 6.33172 0.313657 6.33172 0.700605V1.75151H4.58542V2.80242C4.58542 3.18935 4.27268 3.50303 3.8869 3.50303H3.18838C3.57416 3.50303 3.8869 3.18935 3.8869 2.80242V0.700605C3.8869 0.313657 3.57416 0 3.18838 0C2.80261 0 2.48986 0.313657 2.48986 0.700605V1.75151H1.44208C0.670509 1.75151 0.0450439 2.37885 0.0450439 3.15272V5.25454H18.2066V3.15272Z" fill="black"/>
<path d="M17.1581 13.3115C15.0363 13.3115 13.3163 15.0367 13.3163 17.1649C13.3163 19.293 15.0363 21.0182 17.1581 21.0182C19.2799 21.0182 21 19.293 21 17.1649C21 15.0367 19.2799 13.3115 17.1581 13.3115ZM17.1581 17.8655C17.0687 17.8655 16.9839 17.8471 16.9053 17.8163L15.6301 18.8397L15.1936 18.2924L16.47 17.2684C16.465 17.2343 16.4596 17.2003 16.4596 17.1649C16.4596 16.9062 16.601 16.6828 16.8089 16.5614V14.3624H17.5074V16.5614C17.7153 16.6828 17.8567 16.9062 17.8567 17.1649C17.8567 17.5518 17.5439 17.8655 17.1581 17.8655Z" fill="black"/>
<path d="M1.4416 18.9163H12.967C12.7427 18.377 12.6179 17.7856 12.6179 17.1648C12.6179 15.2707 13.7713 13.6476 15.4116 12.9611H13.6657V10.8593H15.7613V12.8328C16.2016 12.69 16.6705 12.6108 17.1583 12.6108C17.5196 12.6108 17.8692 12.6576 18.2061 12.7376V5.95508H0.0445557V17.5151C0.0445557 18.2892 0.669724 18.9163 1.4416 18.9163ZM13.6657 7.00599H15.7613V9.1078H13.6657V7.00599ZM9.82384 7.00599H11.9194V9.1078H9.82384V7.00599ZM9.82384 10.8593H11.9194V12.9611H9.82384V10.8593ZM9.82384 14.7126H11.9194V16.8145H9.82384V14.7126ZM5.98198 7.00599H8.07754V9.1078H5.98198V7.00599ZM5.98198 10.8593H8.07754V12.9611H5.98198V10.8593ZM5.98198 14.7126H8.07754V16.8145H5.98198V14.7126ZM2.14012 7.00599H4.23568V9.1078H2.14012V7.00599ZM2.14012 10.8593H4.23568V12.9611H2.14012V10.8593ZM2.14012 14.7126H4.23568V16.8145H2.14012V14.7126Z" fill="black"/>
</svg>
