<svg width="18" height="18" viewBox="0 0 18 18" fill="none" xmlns="http://www.w3.org/2000/svg">
<path d="M4.79524 13.2024C-1.14657 7.25898 -0.862251 2.76419 1.85603 0.725741L2.45828 0.277127C2.61194 0.164058 2.78675 0.0830092 2.97232 0.0387902C3.1579 -0.00542885 3.35047 -0.0119171 3.5386 0.0197102C3.72673 0.0513376 3.90659 0.120436 4.06751 0.222906C4.22843 0.325376 4.36713 0.459129 4.47538 0.616229L5.99205 2.79878C6.195 3.09087 6.28276 3.44772 6.23842 3.80064C6.19409 4.15356 6.02081 4.47761 5.75192 4.71043L4.29192 5.97269C3.92692 6.28874 3.74827 6.76809 3.91252 7.22247C4.21604 8.06783 4.95276 9.55968 6.69516 11.3013C8.43755 13.0439 9.92828 13.7807 10.7735 14.0852C11.2288 14.2485 11.7081 14.0708 12.0241 13.7048L13.2863 12.2466C13.5191 11.9776 13.8431 11.8043 14.196 11.76C14.5488 11.7157 14.9057 11.8034 15.1977 12.0064L17.3839 13.5242C17.5408 13.6321 17.6744 13.7705 17.7769 13.931C17.8793 14.0916 17.9484 14.2711 17.9801 14.4589C18.0119 14.6467 18.0055 14.839 17.9615 15.0243C17.9175 15.2096 17.8367 15.3842 17.7239 15.5377L17.2725 16.1458C15.2352 18.8624 10.739 19.1458 4.79524 13.2024Z" fill="black"/>
</svg>
