<svg width="23" height="23" viewBox="0 0 23 23" fill="none" xmlns="http://www.w3.org/2000/svg">
<path d="M11.5 21.0832C16.7926 21.0832 21.0833 16.7925 21.0833 11.4998C21.0833 6.20711 16.7926 1.9165 11.5 1.9165C6.20723 1.9165 1.91663 6.20711 1.91663 11.4998C1.91663 13.0329 2.2766 14.4818 2.91661 15.7668C3.08669 16.1083 3.1433 16.4986 3.0447 16.8671L2.47391 19.0004C2.22612 19.9265 3.07334 20.7736 3.99942 20.5259L6.13271 19.9551C6.50123 19.8565 6.89154 19.9131 7.23301 20.0831C8.51798 20.7232 9.96691 21.0832 11.5 21.0832Z" fill="#222222"/>
<path d="M14 11.5C14 12.3284 14.6716 13 15.5 13C16.3284 13 17 12.3284 17 11.5C17 10.6716 16.3284 10 15.5 10C14.6716 10 14 10.6716 14 11.5Z" fill="white"/>
<path d="M10 11.5C10 12.3284 10.6716 13 11.5 13C12.3284 13 13 12.3284 13 11.5C13 10.6716 12.3284 10 11.5 10C10.6716 10 10 10.6716 10 11.5Z" fill="white"/>
<path d="M6 11.5C6 12.3284 6.67158 13 7.5 13C8.32842 13 9 12.3284 9 11.5C9 10.6716 8.32842 10 7.5 10C6.67158 10 6 10.6716 6 11.5Z" fill="white"/>
</svg>
