<svg width="15" height="15" viewBox="0 0 15 15" fill="none" xmlns="http://www.w3.org/2000/svg">
<g clip-path="url(#clip0_5455_612)">
<path d="M15 -0.00012207H0V14.9999H15V-0.00012207Z" fill="white"/>
<path fill-rule="evenodd" clip-rule="evenodd" d="M3.75 4.99988C3.75 2.92881 5.42893 1.24988 7.5 1.24988C9.57106 1.24988 11.25 2.92881 11.25 4.99988C11.25 7.07094 9.57106 8.74988 7.5 8.74988C5.42893 8.74988 3.75 7.07094 3.75 4.99988Z" fill="#323232"/>
<path fill-rule="evenodd" clip-rule="evenodd" d="M3.3944 10.5639C4.40998 10.1382 5.76462 9.99988 7.50006 9.99988C9.23193 9.99988 10.5845 10.1376 11.5992 10.5612C12.6883 11.0158 13.3568 11.7882 13.7132 12.9116C13.8456 13.3291 13.5324 13.7499 13.0996 13.7499H1.89668C1.46557 13.7499 1.1543 13.3309 1.28562 12.9158C1.64092 11.7924 2.30705 11.0198 3.3944 10.5639Z" fill="#323232"/>
</g>
<defs>
<clipPath id="clip0_5455_612">
<rect width="15" height="15" fill="white"/>
</clipPath>
</defs>
</svg>
