<svg width="14" height="18" viewBox="0 0 14 18" fill="none" xmlns="http://www.w3.org/2000/svg">
<path d="M14 16.042C13.9634 13.6957 13.2322 11.5622 11.9323 10.0175C10.6399 8.48221 8.88842 7.63672 6.99992 7.63672C5.11142 7.63672 3.35993 8.48221 2.06755 10.0175C0.768853 11.5605 0.0381901 13.691 0 16.0345C0.734363 16.4023 3.77326 17.8185 6.99992 17.8185C10.4891 17.8185 13.319 16.4106 14 16.042Z" fill="#1E1E1E"/>
<path d="M6.99992 6.90909C8.95802 6.90909 10.5454 5.36244 10.5454 3.45455C10.5454 1.54665 8.95802 0 6.99992 0C5.04182 0 3.45447 1.54665 3.45447 3.45455C3.45447 5.36244 5.04182 6.90909 6.99992 6.90909Z" fill="#1E1E1E"/>
</svg>
