<svg width="18" height="18" viewBox="0 0 18 18" fill="none" xmlns="http://www.w3.org/2000/svg">
<g clip-path="url(#clip0_5562_116)">
<path fill-rule="evenodd" clip-rule="evenodd" d="M10.3837 9.32518L12.6939 10.659C12.9194 10.7892 12.9924 11.085 12.8654 11.305C12.7346 11.5315 12.4523 11.6134 12.2202 11.4794L9.87086 10.123C9.63031 10.3098 9.32814 10.4211 9 10.4211C8.21517 10.4211 7.57895 9.78483 7.57895 9C7.57895 8.38127 7.97438 7.85489 8.52632 7.65981V3.31903C8.52632 3.05563 8.74604 2.84211 9 2.84211C9.26161 2.84211 9.47369 3.06275 9.47369 3.31903V7.65981C10.0256 7.85489 10.4211 8.38127 10.4211 9C10.4211 9.11189 10.4081 9.22075 10.3837 9.32518ZM9 18C13.9706 18 18 13.9706 18 9C18 4.02944 13.9706 0 9 0C4.02944 0 0 4.02944 0 9C0 13.9706 4.02944 18 9 18Z" fill="black"/>
</g>
<defs>
<clipPath id="clip0_5562_116">
<rect width="18" height="18" fill="white"/>
</clipPath>
</defs>
</svg>
