<svg width="20" height="20" viewBox="0 0 20 20" fill="none" xmlns="http://www.w3.org/2000/svg">
<g clip-path="url(#clip0_6109_197)">
<path d="M10 15.1666V9.33325M10 9.33325L12.5 11.8333M10 9.33325L7.5 11.8333" stroke="#303030" stroke-width="2" stroke-linecap="round" stroke-linejoin="round"/>
<path d="M13.3333 5.83325H10H6.66667" stroke="#303030" stroke-width="2" stroke-linecap="round"/>
<path d="M18.3333 10.0001C18.3333 13.9284 18.3333 15.8927 17.1129 17.113C15.8926 18.3334 13.9283 18.3334 10 18.3334C6.07163 18.3334 4.10745 18.3334 2.88706 17.113C1.66667 15.8927 1.66667 13.9284 1.66667 10.0001C1.66667 6.07171 1.66667 4.10752 2.88706 2.88714C4.10745 1.66675 6.07163 1.66675 10 1.66675C13.9283 1.66675 15.8926 1.66675 17.1129 2.88714C17.9244 3.69859 18.1963 4.83887 18.2874 6.66675" stroke="#303030" stroke-width="2" stroke-linecap="round"/>
</g>
<defs>
<clipPath id="clip0_6109_197">
<rect width="20" height="20" fill="white"/>
</clipPath>
</defs>
</svg>
