<svg width="19" height="13" viewBox="0 0 19 13" fill="none" xmlns="http://www.w3.org/2000/svg">
<path d="M18.9089 3.06531V2.06816C18.9089 0.925945 17.9829 0 16.8407 0H2.06816C0.925945 0 0 0.925945 0 2.06816V3.06531C0 3.16728 0.0826895 3.24997 0.184657 3.24997H18.7242C18.8262 3.24997 18.9089 3.16728 18.9089 3.06531Z" fill="black"/>
<path d="M0 4.61679V10.9321C0 12.0743 0.925945 13.0002 2.06816 13.0002H16.8407C17.9829 13.0002 18.9089 12.0743 18.9089 10.9321V4.61679C18.9089 4.51482 18.8262 4.43213 18.7242 4.43213H0.184657C0.0826895 4.43213 0 4.51482 0 4.61679ZM4.72722 9.4548C4.72722 9.78113 4.46265 10.0457 4.13632 10.0457H3.54542C3.21909 10.0457 2.95451 9.78113 2.95451 9.4548V8.8639C2.95451 8.53757 3.21909 8.273 3.54542 8.273H4.13632C4.46265 8.273 4.72722 8.53757 4.72722 8.8639V9.4548Z" fill="black"/>
</svg>
