<svg width="24" height="32" viewBox="0 0 24 32" fill="none" xmlns="http://www.w3.org/2000/svg">
<path d="M24 28.1369C23.9372 24.1145 22.6838 20.4571 20.4553 17.8091C18.2398 15.1772 15.2373 13.7278 11.9999 13.7278C8.76244 13.7278 5.75988 15.1772 3.54438 17.8091C1.31803 20.4543 0.0654687 24.1066 0 28.124C1.25891 28.7544 6.46844 31.1823 11.9999 31.1823C17.9812 31.1823 22.8325 28.7687 24 28.1369Z" fill="#809BCE"/>
<path d="M11.9998 12.4804C15.3565 12.4804 18.0777 9.82898 18.0777 6.55831C18.0777 3.28764 15.3565 0.63623 11.9998 0.63623C8.64305 0.63623 5.92188 3.28764 5.92188 6.55831C5.92188 9.82898 8.64305 12.4804 11.9998 12.4804Z" fill="#809BCE"/>
</svg>
