<svg width="27" height="27" viewBox="0 0 27 27" fill="none" xmlns="http://www.w3.org/2000/svg">
<path d="M6.75 9H11.25" stroke="#252525" stroke-width="2" stroke-linecap="round" stroke-linejoin="round"/>
<path d="M23.4375 10.125H20.5097C18.5023 10.125 16.875 11.636 16.875 13.5C16.875 15.364 18.5023 16.875 20.5097 16.875H23.4375C23.5313 16.875 23.5781 16.875 23.6177 16.8726C24.2244 16.8356 24.7076 16.387 24.7474 15.8236C24.75 15.7868 24.75 15.7433 24.75 15.6563V11.3437C24.75 11.2567 24.75 11.2132 24.7474 11.1764C24.7076 10.6131 24.2244 10.1643 23.6177 10.1274C23.5781 10.125 23.5313 10.125 23.4375 10.125Z" stroke="#252525" stroke-width="2"/>
<path d="M23.5856 10.125C23.4982 8.01866 23.2162 6.72722 22.3069 5.81802C20.989 4.5 18.8676 4.5 14.625 4.5H11.25C7.00735 4.5 4.88604 4.5 3.56802 5.81802C2.25 7.13604 2.25 9.25736 2.25 13.5C2.25 17.7426 2.25 19.864 3.56802 21.182C4.88604 22.5 7.00735 22.5 11.25 22.5H14.625C18.8676 22.5 20.989 22.5 22.3069 21.182C23.2162 20.2728 23.4982 18.9813 23.5856 16.875" stroke="#252525" stroke-width="2"/>
<path d="M20.2401 13.5H20.2508" stroke="#252525" stroke-width="2" stroke-linecap="round" stroke-linejoin="round"/>
</svg>
