<svg width="20" height="20" viewBox="0 0 20 20" fill="none" xmlns="http://www.w3.org/2000/svg">
<g clip-path="url(#clip0_5566_484)">
<path d="M19.1667 10C19.1667 15.0626 15.0626 19.1667 10 19.1667C4.93743 19.1667 0.833374 15.0626 0.833374 10C0.833374 4.93739 4.93743 0.833328 10 0.833328C15.0626 0.833328 19.1667 4.93739 19.1667 10ZM2.50573 10C2.50573 14.139 5.86105 17.4943 10 17.4943C14.139 17.4943 17.4944 14.139 17.4944 10C17.4944 5.861 14.139 2.50569 10 2.50569C5.86105 2.50569 2.50573 5.861 2.50573 10Z" fill="#0F0F0F"/>
<path d="M9.99996 4.16667C9.53971 4.16667 9.16663 4.53976 9.16663 5.00001V10.3889C9.16663 10.3889 9.16663 10.6062 9.27221 10.7696C9.34288 10.9082 9.45304 11.0286 9.59779 11.1122L13.4476 13.3349C13.8462 13.565 14.3559 13.4284 14.586 13.0298C14.816 12.6313 14.6795 12.1216 14.281 11.8915L10.8333 9.901V5.00001C10.8333 4.53977 10.4602 4.16667 9.99996 4.16667Z" fill="#0F0F0F"/>
</g>
<defs>
<clipPath id="clip0_5566_484">
<rect width="20" height="20" fill="white"/>
</clipPath>
</defs>
</svg>
