<svg width="39" height="39" viewBox="0 0 39 39" fill="none" xmlns="http://www.w3.org/2000/svg">
<g opacity="0.5">
<path d="M39 19.5C39 30.2696 30.2696 39 19.5 39C8.73045 39 0 30.2696 0 19.5C0 8.73045 8.73045 0 19.5 0C30.2696 0 39 8.73045 39 19.5Z" fill="#D9D9D9"/>
<path d="M15.8777 17.5223L18.3999 14.9018V25.8571C18.3999 26.4883 18.8924 27 19.4999 27C20.1074 27 20.5999 26.4883 20.5999 25.8571V14.9018L23.1221 17.5223C23.5517 17.9686 24.2482 17.9686 24.6778 17.5223C25.1074 17.076 25.1074 16.3524 24.6778 15.906L20.2778 11.3346L20.2766 11.3335C20.2513 11.3073 20.2248 11.2825 20.1972 11.2589C20.1844 11.248 20.1709 11.2385 20.1578 11.2283C20.1422 11.2162 20.1269 11.2036 20.1107 11.1924C20.095 11.1814 20.0787 11.172 20.0626 11.162C20.0479 11.1529 20.0336 11.1433 20.0184 11.1349C20.002 11.1258 19.9851 11.118 19.9684 11.1098C19.9526 11.1021 19.9371 11.0939 19.9209 11.0869C19.9046 11.08 19.888 11.0743 19.8715 11.0682C19.8542 11.0617 19.837 11.0548 19.8193 11.0492C19.8028 11.044 19.786 11.0402 19.7693 11.0359C19.7512 11.0311 19.7334 11.0258 19.7149 11.022C19.6956 11.0181 19.6761 11.0157 19.6567 11.0128C19.6406 11.0104 19.6249 11.0072 19.6086 11.0055C19.5364 10.9982 19.4636 10.9982 19.3914 11.0055C19.3752 11.0072 19.3594 11.0104 19.3433 11.0128C19.3239 11.0157 19.3043 11.018 19.2851 11.022C19.2666 11.0258 19.2488 11.0311 19.2307 11.0359C19.214 11.0402 19.1972 11.044 19.1807 11.0492C19.163 11.0548 19.1458 11.0617 19.1285 11.0682C19.112 11.0743 19.0954 11.08 19.0791 11.0869C19.0629 11.0939 19.0474 11.1021 19.0316 11.1098C19.0149 11.118 18.998 11.1258 18.9816 11.1349C18.9664 11.1433 18.9521 11.1529 18.9374 11.162C18.9213 11.172 18.905 11.1815 18.8893 11.1924C18.8731 11.2037 18.8578 11.2162 18.8422 11.2283C18.8291 11.2385 18.8156 11.248 18.8028 11.2589C18.7753 11.2824 18.7487 11.3073 18.7234 11.3335L18.7222 11.3346L14.3222 15.906C13.8926 16.3524 13.8926 17.076 14.3222 17.5223C14.7518 17.9686 15.4481 17.9686 15.8777 17.5223Z" fill="black"/>
</g>
</svg>
