<svg width="26" height="26" viewBox="0 0 26 26" fill="none" xmlns="http://www.w3.org/2000/svg">
<path d="M18.4167 18.4167H18.4275M16.9 15.1667H19.5C20.5096 15.1667 21.0143 15.1667 21.4125 15.3315C21.9434 15.5515 22.3652 15.9733 22.5851 16.5041C22.75 16.9024 22.75 17.4071 22.75 18.4167C22.75 19.4262 22.75 19.9309 22.5851 20.3292C22.3652 20.86 21.9434 21.2819 21.4125 21.5018C21.0143 21.6667 20.5096 21.6667 19.5 21.6667H6.5C5.49046 21.6667 4.9857 21.6667 4.58752 21.5018C4.05663 21.2819 3.63483 20.86 3.41493 20.3292C3.25 19.9309 3.25 19.4262 3.25 18.4167C3.25 17.4071 3.25 16.9024 3.41493 16.5041C3.63483 15.9733 4.05663 15.5515 4.58752 15.3315C4.9857 15.1667 5.49046 15.1667 6.5 15.1667H9.1M13 16.25V4.33333M13 4.33333L16.25 7.58333M13 4.33333L9.75 7.58333" stroke="#363636" stroke-width="2" stroke-linecap="round" stroke-linejoin="round"/>
</svg>
