<svg width="13" height="13" viewBox="0 0 13 13" fill="none" xmlns="http://www.w3.org/2000/svg">
<path d="M3.46323 9.53506C-0.828076 5.24259 -0.622737 1.99636 1.34047 0.524146L1.77543 0.200148C1.8864 0.118486 2.01265 0.0599511 2.14668 0.0280151C2.28071 -0.00392084 2.41978 -0.00860681 2.55565 0.0142352C2.69153 0.0370772 2.82143 0.0869817 2.93765 0.160988C3.05387 0.234994 3.15404 0.331593 3.23222 0.445054L4.32759 2.02134C4.47417 2.2323 4.53755 2.49002 4.50553 2.74491C4.47351 2.9998 4.34836 3.23383 4.15417 3.40198L3.09972 4.31361C2.83611 4.54187 2.70708 4.88807 2.82571 5.21623C3.04492 5.82676 3.577 6.90421 4.83539 8.16205C6.09378 9.42058 7.17043 9.95272 7.78089 10.1726C8.10971 10.2906 8.45587 10.1622 8.68411 9.89791L9.59564 8.84474C9.76377 8.65052 9.99778 8.52536 10.2526 8.49334C10.5075 8.46132 10.7652 8.5247 10.9761 8.67129L12.555 9.76747C12.6684 9.84541 12.7649 9.94534 12.8389 10.0613C12.9128 10.1773 12.9628 10.3069 12.9857 10.4426C13.0086 10.5782 13.004 10.7171 12.9722 10.8509C12.9404 10.9847 12.882 11.1108 12.8006 11.2217L12.4745 11.6608C11.0032 13.6229 7.75592 13.8275 3.46323 9.53506Z" fill="white"/>
</svg>
