<svg width="15" height="14" viewBox="0 0 15 14" fill="none" xmlns="http://www.w3.org/2000/svg">
<path d="M3.97813 11.4267L2.8775 12.2913C2.27648 12.7635 1.97583 12.9997 1.72293 13C1.50298 13.0002 1.29499 12.902 1.15778 12.7332C1 12.5391 1 12.1613 1 11.4054V3.26971C1 2.47528 1 2.07778 1.15744 1.77435C1.29592 1.50744 1.51673 1.2906 1.78852 1.15461C2.0975 1 2.50229 1 3.31126 1H11.689C12.498 1 12.9023 1 13.2113 1.15461C13.483 1.2906 13.7042 1.50744 13.8427 1.77435C14 2.07748 14 2.4745 14 3.26738V8.66235C14 9.45521 14 9.85168 13.8427 10.1548C13.7042 10.4217 13.4831 10.6389 13.2113 10.7749C12.9027 10.9294 12.4989 10.9294 11.6915 10.9294H5.42185C5.12138 10.9294 4.97099 10.9294 4.82729 10.9583C4.69979 10.9841 4.57656 11.0264 4.46066 11.0846C4.33052 11.1498 4.21363 11.2416 3.98077 11.4246L3.97813 11.4267Z" stroke="white" stroke-width="2" stroke-linecap="round" stroke-linejoin="round"/>
</svg>
