<svg width="64" height="64" viewBox="0 0 64 64" fill="none" xmlns="http://www.w3.org/2000/svg">
<g opacity="0.8">
<path d="M16 21.3333H26.6667" stroke="#252525" stroke-width="2.75" stroke-linecap="round" stroke-linejoin="round"/>
<path d="M55.5555 24H48.6155C43.8573 24 40 27.5816 40 32C40 36.4184 43.8573 40 48.6155 40H55.5555C55.7779 40 55.8888 40 55.9827 39.9944C57.4208 39.9067 58.5661 38.8432 58.6605 37.5077C58.6667 37.4205 58.6667 37.3173 58.6667 37.1112V26.8888C58.6667 26.6827 58.6667 26.5794 58.6605 26.4923C58.5661 25.1569 57.4208 24.0932 55.9827 24.0057C55.8888 24 55.7779 24 55.5555 24Z" stroke="#252525" stroke-width="2.75"/>
<path d="M55.9066 24.0001C55.6994 19.0073 55.0309 15.9461 52.8757 13.7909C49.7517 10.6667 44.7232 10.6667 34.6666 10.6667H26.6666C16.61 10.6667 11.5817 10.6667 8.4575 13.7909C5.33331 16.9151 5.33331 21.9434 5.33331 32.0001C5.33331 42.0566 5.33331 47.0851 8.4575 50.2091C11.5817 53.3334 16.61 53.3334 26.6666 53.3334H34.6666C44.7232 53.3334 49.7517 53.3334 52.8757 50.2091C55.0309 48.0542 55.6994 44.9929 55.9066 40.0001" stroke="#252525" stroke-width="2.75"/>
<path d="M47.9766 32H48.0018" stroke="#252525" stroke-width="3" stroke-linecap="round" stroke-linejoin="round"/>
</g>
</svg>
