<svg width="38" height="38" viewBox="0 0 38 38" fill="none" xmlns="http://www.w3.org/2000/svg">
<path d="M9.5 12.6665H15.8333" stroke="#252525" stroke-width="2.75" stroke-linecap="round" stroke-linejoin="round"/>
<path d="M32.9861 14.25H28.8654C26.0403 14.25 23.75 16.3766 23.75 19C23.75 21.6234 26.0403 23.75 28.8654 23.75H32.9861C33.1181 23.75 33.184 23.75 33.2397 23.7467C34.0936 23.6946 34.7736 23.0632 34.8297 22.2702C34.8333 22.2184 34.8333 22.1572 34.8333 22.0348V15.9652C34.8333 15.8428 34.8333 15.7815 34.8297 15.7298C34.7736 14.9369 34.0936 14.3054 33.2397 14.2534C33.184 14.25 33.1181 14.25 32.9861 14.25Z" stroke="#252525" stroke-width="2.75"/>
<path d="M33.1945 14.2502C33.0715 11.2857 32.6746 9.4681 31.3949 8.18848C29.54 6.3335 26.5544 6.3335 20.5833 6.3335H15.8333C9.86216 6.3335 6.87661 6.3335 5.02161 8.18848C3.16663 10.0435 3.16663 13.029 3.16663 19.0002C3.16663 24.9712 3.16663 27.9569 5.02161 29.8118C6.87661 31.6668 9.86216 31.6668 15.8333 31.6668H20.5833C26.5544 31.6668 29.54 31.6668 31.3949 29.8118C32.6746 28.5323 33.0715 26.7146 33.1945 23.7502" stroke="#252525" stroke-width="2.75"/>
<path d="M28.4861 19H28.5011" stroke="#252525" stroke-width="3" stroke-linecap="round" stroke-linejoin="round"/>
</svg>
