<svg width="18" height="18" viewBox="0 0 18 18" fill="none" xmlns="http://www.w3.org/2000/svg">
<path d="M16.04 -7.63283e-05H15.4C15.3573 -0.00290478 15.3144 0.00343388 15.2743 0.018515C15.2342 0.0335961 15.1978 0.0570716 15.1675 0.08737C15.1372 0.117668 15.1137 0.15409 15.0986 0.194197C15.0836 0.234303 15.0772 0.277169 15.08 0.319924V1.59992C15.08 2.27888 14.8103 2.93002 14.3302 3.41012C13.8501 3.89021 13.199 4.15992 12.52 4.15992H5.48004C4.80108 4.15992 4.14994 3.89021 3.66985 3.41012C3.18975 2.93002 2.92004 2.27888 2.92004 1.59992V0.319924C2.92287 0.277169 2.91653 0.234303 2.90145 0.194197C2.88637 0.15409 2.86289 0.117668 2.83259 0.08737C2.80229 0.0570716 2.76587 0.0335961 2.72577 0.018515C2.68566 0.00343388 2.64279 -0.00290478 2.60004 -7.63283e-05H1.96004C1.45082 -7.63283e-05 0.962464 0.202209 0.602394 0.562278C0.242324 0.922348 0.0400391 1.41071 0.0400391 1.91992V15.6799C0.0400391 16.1891 0.242324 16.6775 0.602394 17.0376C0.962464 17.3976 1.45082 17.5999 1.96004 17.5999H16.04C16.5493 17.5999 17.0376 17.3976 17.3977 17.0376C17.7578 16.6775 17.96 16.1891 17.96 15.6799V1.91992C17.96 1.41071 17.7578 0.922348 17.3977 0.562278C17.0376 0.202209 16.5493 -7.63283e-05 16.04 -7.63283e-05ZM11.24 12.4799C11.24 12.6497 11.1726 12.8124 11.0526 12.9325C10.9326 13.0525 10.7698 13.1199 10.6 13.1199H4.16804C3.9983 13.1199 3.83551 13.0525 3.71549 12.9325C3.59547 12.8124 3.52804 12.6497 3.52804 12.4799V11.8399C3.52804 11.6702 3.59547 11.5074 3.71549 11.3874C3.83551 11.2674 3.9983 11.1999 4.16804 11.1999H10.6C10.7698 11.1999 10.9326 11.2674 11.0526 11.3874C11.1726 11.5074 11.24 11.6702 11.24 11.8399V12.4799ZM14.44 9.27992C14.44 9.44966 14.3726 9.61245 14.2526 9.73247C14.1326 9.8525 13.9698 9.91992 13.8 9.91992H4.16804C3.9983 9.91992 3.83551 9.8525 3.71549 9.73247C3.59547 9.61245 3.52804 9.44966 3.52804 9.27992V8.63992C3.52804 8.47019 3.59547 8.3074 3.71549 8.18738C3.83551 8.06735 3.9983 7.99992 4.16804 7.99992H13.8C13.9698 7.99992 14.1326 8.06735 14.2526 8.18738C14.3726 8.3074 14.44 8.47019 14.44 8.63992V9.27992Z" fill="#858EA9"/>
</svg>
