<svg width="17" height="21" viewBox="0 0 17 21" fill="none" xmlns="http://www.w3.org/2000/svg">
<path d="M8.48832 7C8.49217 7 8.49608 6.99973 8.49998 6.99973C8.50392 6.99973 8.50778 7 8.51168 7C10.4383 7 12 5.43303 12 3.49993C12 1.56706 10.4383 0 8.51168 0C8.50778 0 8.50392 0.000273133 8.49998 0.000273133C8.49608 0.000273133 8.49222 0 8.48832 0C6.56163 0 5 1.56706 5 3.49993C4.99991 5.43303 6.56154 7 8.48832 7Z" fill="black"/>
<path d="M16.4545 14.0273L12.9039 11.4954L11.7811 8.80646C11.5674 8.29479 11.0585 7.98972 10.5264 8.0012L10.5262 8H6.47381L6.47364 8.0012C5.94152 7.98972 5.43269 8.29479 5.21896 8.80646L4.09615 11.4954L0.545546 14.0273C-0.0459201 14.4491 -0.176843 15.2613 0.253315 15.8414C0.512417 16.1907 0.916119 16.3764 1.32539 16.3764C1.59543 16.3764 1.86792 16.2956 2.10298 16.1278L5.94197 13.3906L5.84413 14.3816L2.21429 17.9897C1.71071 18.5036 1.56869 19.2628 1.85355 19.9186C2.13837 20.5743 2.7949 21 3.52172 21H5.25676C4.80965 20.6031 4.52454 20.0109 4.52454 19.3496C4.52454 18.1573 5.44887 17.1873 6.58503 17.1873C6.58503 17.1873 7.91404 17.1873 8.56128 17.1873C9.20861 17.1873 9.72227 17.7063 9.72227 17.7063H6.58503C5.72156 17.7063 5.01904 18.4434 5.01904 19.3496C5.01904 20.2558 5.72156 20.9929 6.58503 20.9929H9.62333C9.6574 20.9905 9.69213 20.9904 9.72571 20.9864H13.3984C14.1252 20.9864 14.7817 20.5607 15.0666 19.9049C15.3514 19.2492 15.2094 18.4901 14.7059 17.9761L11.1551 14.3635L11.0581 13.3906L14.897 16.1278C15.132 16.2956 15.4046 16.3764 15.6745 16.3764C16.0838 16.3764 16.4875 16.1907 16.7466 15.8414C17.1768 15.2613 17.046 14.4491 16.4545 14.0273Z" fill="black"/>
</svg>
